<mxfile host="app.diagrams.net" modified="2023-11-08T12:17:19.371Z" agent="Mozilla/5.0 (Windows NT 10.0; Win64; x64) AppleWebKit/537.36 (KHTML, like Gecko) Chrome/118.0.0.0 Safari/537.36" etag="G93bGMDfDcXsnuJQ-gI1" version="22.0.8" type="device">
  <diagram name="Page-1" id="ndm54q8vYrd81YMSTKYm">
    <mxGraphModel dx="1562" dy="810" grid="1" gridSize="10" guides="1" tooltips="1" connect="1" arrows="1" fold="1" page="1" pageScale="1" pageWidth="850" pageHeight="1100" math="0" shadow="0">
      <root>
        <mxCell id="0" />
        <mxCell id="1" parent="0" />
        <mxCell id="9" value="" style="curved=1;startArrow=none;endArrow=block;" parent="1" source="m1fRsqhDPmbQ0bhZi6d0-17" target="m1fRsqhDPmbQ0bhZi6d0-18" edge="1">
          <mxGeometry relative="1" as="geometry">
            <Array as="points">
              <mxPoint x="264" y="170" />
            </Array>
            <mxPoint x="244.03092400963556" y="225" as="sourcePoint" />
            <mxPoint x="319" y="158.4001766518876" as="targetPoint" />
          </mxGeometry>
        </mxCell>
        <mxCell id="10" value="" style="curved=1;startArrow=none;endArrow=block;" parent="1" source="m1fRsqhDPmbQ0bhZi6d0-17" target="m1fRsqhDPmbQ0bhZi6d0-19" edge="1">
          <mxGeometry relative="1" as="geometry">
            <Array as="points">
              <mxPoint x="284" y="260" />
            </Array>
            <mxPoint x="243.5886517036747" y="257.9999999999999" as="sourcePoint" />
            <mxPoint x="319" y="256.5000000000001" as="targetPoint" />
          </mxGeometry>
        </mxCell>
        <mxCell id="11" value="" style="curved=1;startArrow=none;endArrow=block;entryX=0;entryY=0.606;entryDx=0;entryDy=0;entryPerimeter=0;" parent="1" source="m1fRsqhDPmbQ0bhZi6d0-28" target="m1fRsqhDPmbQ0bhZi6d0-31" edge="1">
          <mxGeometry relative="1" as="geometry">
            <Array as="points">
              <mxPoint x="484" y="292" />
            </Array>
            <mxPoint x="464.00381720410076" y="317.5" as="sourcePoint" />
            <mxPoint x="524" y="292.2014566065005" as="targetPoint" />
          </mxGeometry>
        </mxCell>
        <mxCell id="12" value="" style="curved=1;startArrow=none;endArrow=block;" parent="1" source="m1fRsqhDPmbQ0bhZi6d0-28" target="m1fRsqhDPmbQ0bhZi6d0-34" edge="1">
          <mxGeometry relative="1" as="geometry">
            <Array as="points">
              <mxPoint x="484" y="359" />
            </Array>
            <mxPoint x="464.3875922253234" y="350.5" as="sourcePoint" />
            <mxPoint x="524" y="375.60436981950147" as="targetPoint" />
          </mxGeometry>
        </mxCell>
        <mxCell id="13" value="" style="curved=1;startArrow=none;endArrow=block;" parent="1" source="m1fRsqhDPmbQ0bhZi6d0-27" target="m1fRsqhDPmbQ0bhZi6d0-28" edge="1">
          <mxGeometry relative="1" as="geometry">
            <Array as="points">
              <mxPoint x="364" y="340" />
            </Array>
            <mxPoint x="398.5975609756098" y="390" as="sourcePoint" />
            <mxPoint x="404" y="365.00000384246516" as="targetPoint" />
          </mxGeometry>
        </mxCell>
        <mxCell id="14" value="" style="curved=1;startArrow=none;endArrow=block;" parent="1" source="m1fRsqhDPmbQ0bhZi6d0-27" target="m1fRsqhDPmbQ0bhZi6d0-29" edge="1">
          <mxGeometry relative="1" as="geometry">
            <Array as="points">
              <mxPoint x="335" y="490" />
              <mxPoint x="354" y="670" />
            </Array>
            <mxPoint x="397.8214285714288" y="423" as="sourcePoint" />
            <mxPoint x="404" y="448.402917055466" as="targetPoint" />
          </mxGeometry>
        </mxCell>
        <mxCell id="m1fRsqhDPmbQ0bhZi6d0-16" value="" style="curved=1;startArrow=none;endArrow=block;" edge="1" parent="1" source="m1fRsqhDPmbQ0bhZi6d0-17" target="m1fRsqhDPmbQ0bhZi6d0-27">
          <mxGeometry relative="1" as="geometry">
            <Array as="points">
              <mxPoint x="284" y="407" />
            </Array>
            <mxPoint x="225.53620352250482" y="167.9999999999999" as="sourcePoint" />
            <mxPoint x="309" y="407" as="targetPoint" />
          </mxGeometry>
        </mxCell>
        <mxCell id="m1fRsqhDPmbQ0bhZi6d0-17" value="catkin_ws" style="image;aspect=fixed;html=1;points=[];align=center;fontSize=12;image=img/lib/azure2/general/Folder_Blank.svg;" vertex="1" parent="1">
          <mxGeometry x="204" y="217" width="52.98" height="43" as="geometry" />
        </mxCell>
        <mxCell id="m1fRsqhDPmbQ0bhZi6d0-18" value="devel" style="image;aspect=fixed;html=1;points=[];align=center;fontSize=12;image=img/lib/azure2/general/Folder_Blank.svg;" vertex="1" parent="1">
          <mxGeometry x="309" y="150" width="52.98" height="43" as="geometry" />
        </mxCell>
        <mxCell id="m1fRsqhDPmbQ0bhZi6d0-19" value="build" style="image;aspect=fixed;html=1;points=[];align=center;fontSize=12;image=img/lib/azure2/general/Folder_Blank.svg;" vertex="1" parent="1">
          <mxGeometry x="309" y="235" width="52.98" height="43" as="geometry" />
        </mxCell>
        <mxCell id="m1fRsqhDPmbQ0bhZi6d0-27" value="src" style="image;aspect=fixed;html=1;points=[];align=center;fontSize=12;image=img/lib/azure2/general/Folder_Blank.svg;" vertex="1" parent="1">
          <mxGeometry x="309" y="385" width="52.98" height="43" as="geometry" />
        </mxCell>
        <mxCell id="m1fRsqhDPmbQ0bhZi6d0-37" style="edgeStyle=orthogonalEdgeStyle;orthogonalLoop=1;jettySize=auto;html=1;curved=1;" edge="1" parent="1" source="m1fRsqhDPmbQ0bhZi6d0-28" target="m1fRsqhDPmbQ0bhZi6d0-35">
          <mxGeometry relative="1" as="geometry">
            <Array as="points">
              <mxPoint x="444" y="432" />
            </Array>
          </mxGeometry>
        </mxCell>
        <mxCell id="m1fRsqhDPmbQ0bhZi6d0-72" value="" style="edgeStyle=orthogonalEdgeStyle;orthogonalLoop=1;jettySize=auto;html=1;curved=1;entryX=0;entryY=0.606;entryDx=0;entryDy=0;entryPerimeter=0;" edge="1" parent="1" source="m1fRsqhDPmbQ0bhZi6d0-28" target="m1fRsqhDPmbQ0bhZi6d0-36">
          <mxGeometry relative="1" as="geometry">
            <mxPoint x="444" y="502" as="targetPoint" />
            <Array as="points">
              <mxPoint x="430" y="502" />
            </Array>
          </mxGeometry>
        </mxCell>
        <mxCell id="m1fRsqhDPmbQ0bhZi6d0-73" style="edgeStyle=orthogonalEdgeStyle;orthogonalLoop=1;jettySize=auto;html=1;curved=1;entryX=0;entryY=0.606;entryDx=0;entryDy=0;entryPerimeter=0;" edge="1" parent="1" source="m1fRsqhDPmbQ0bhZi6d0-28" target="m1fRsqhDPmbQ0bhZi6d0-39">
          <mxGeometry relative="1" as="geometry">
            <mxPoint x="430" y="572" as="targetPoint" />
            <Array as="points">
              <mxPoint x="430" y="464" />
              <mxPoint x="430" y="572" />
            </Array>
          </mxGeometry>
        </mxCell>
        <mxCell id="m1fRsqhDPmbQ0bhZi6d0-75" style="edgeStyle=orthogonalEdgeStyle;orthogonalLoop=1;jettySize=auto;html=1;curved=1;" edge="1" parent="1" source="m1fRsqhDPmbQ0bhZi6d0-28" target="m1fRsqhDPmbQ0bhZi6d0-40">
          <mxGeometry relative="1" as="geometry">
            <mxPoint x="430.49" y="612" as="targetPoint" />
            <Array as="points">
              <mxPoint x="430" y="422" />
              <mxPoint x="430" y="638" />
            </Array>
          </mxGeometry>
        </mxCell>
        <mxCell id="m1fRsqhDPmbQ0bhZi6d0-28" value="Package 1" style="image;aspect=fixed;html=1;points=[];align=center;fontSize=12;image=img/lib/azure2/general/Folder_Blank.svg;" vertex="1" parent="1">
          <mxGeometry x="404" y="312" width="52.98" height="43" as="geometry" />
        </mxCell>
        <mxCell id="m1fRsqhDPmbQ0bhZi6d0-29" value="Package 2" style="image;aspect=fixed;html=1;points=[];align=center;fontSize=12;image=img/lib/azure2/general/Folder_Blank.svg;" vertex="1" parent="1">
          <mxGeometry x="404" y="656" width="52.98" height="43" as="geometry" />
        </mxCell>
        <mxCell id="m1fRsqhDPmbQ0bhZi6d0-31" value="scripts" style="image;aspect=fixed;html=1;points=[];align=center;fontSize=12;image=img/lib/azure2/general/Folder_Blank.svg;" vertex="1" parent="1">
          <mxGeometry x="524" y="272" width="40.66" height="33" as="geometry" />
        </mxCell>
        <mxCell id="m1fRsqhDPmbQ0bhZi6d0-60" value="" style="edgeStyle=orthogonalEdgeStyle;rounded=0;orthogonalLoop=1;jettySize=auto;html=1;" edge="1" parent="1" source="m1fRsqhDPmbQ0bhZi6d0-34" target="m1fRsqhDPmbQ0bhZi6d0-52">
          <mxGeometry relative="1" as="geometry">
            <Array as="points">
              <mxPoint x="604" y="359" />
              <mxPoint x="604" y="359" />
            </Array>
          </mxGeometry>
        </mxCell>
        <mxCell id="m1fRsqhDPmbQ0bhZi6d0-34" value="src" style="image;aspect=fixed;html=1;points=[];align=center;fontSize=12;image=img/lib/azure2/general/Folder_Blank.svg;" vertex="1" parent="1">
          <mxGeometry x="524" y="342" width="40.66" height="33" as="geometry" />
        </mxCell>
        <mxCell id="m1fRsqhDPmbQ0bhZi6d0-57" style="edgeStyle=orthogonalEdgeStyle;rounded=0;orthogonalLoop=1;jettySize=auto;html=1;" edge="1" parent="1" source="m1fRsqhDPmbQ0bhZi6d0-35" target="m1fRsqhDPmbQ0bhZi6d0-54">
          <mxGeometry relative="1" as="geometry">
            <Array as="points">
              <mxPoint x="594" y="429" />
              <mxPoint x="594" y="429" />
            </Array>
          </mxGeometry>
        </mxCell>
        <mxCell id="m1fRsqhDPmbQ0bhZi6d0-35" value="msg" style="image;aspect=fixed;html=1;points=[];align=center;fontSize=12;image=img/lib/azure2/general/Folder_Blank.svg;" vertex="1" parent="1">
          <mxGeometry x="524" y="412" width="40.66" height="33" as="geometry" />
        </mxCell>
        <mxCell id="m1fRsqhDPmbQ0bhZi6d0-61" value="" style="edgeStyle=orthogonalEdgeStyle;rounded=0;orthogonalLoop=1;jettySize=auto;html=1;" edge="1" parent="1" source="m1fRsqhDPmbQ0bhZi6d0-36" target="m1fRsqhDPmbQ0bhZi6d0-55">
          <mxGeometry relative="1" as="geometry" />
        </mxCell>
        <mxCell id="m1fRsqhDPmbQ0bhZi6d0-36" value="srv" style="image;aspect=fixed;html=1;points=[];align=center;fontSize=12;image=img/lib/azure2/general/Folder_Blank.svg;" vertex="1" parent="1">
          <mxGeometry x="524" y="482" width="40.66" height="33" as="geometry" />
        </mxCell>
        <mxCell id="m1fRsqhDPmbQ0bhZi6d0-63" value="" style="edgeStyle=orthogonalEdgeStyle;rounded=0;orthogonalLoop=1;jettySize=auto;html=1;" edge="1" parent="1" source="m1fRsqhDPmbQ0bhZi6d0-39" target="m1fRsqhDPmbQ0bhZi6d0-62">
          <mxGeometry relative="1" as="geometry">
            <Array as="points">
              <mxPoint x="604" y="569" />
              <mxPoint x="604" y="569" />
            </Array>
          </mxGeometry>
        </mxCell>
        <mxCell id="m1fRsqhDPmbQ0bhZi6d0-39" value="include" style="image;aspect=fixed;html=1;points=[];align=center;fontSize=12;image=img/lib/azure2/general/Folder_Blank.svg;" vertex="1" parent="1">
          <mxGeometry x="524" y="552" width="40.66" height="33" as="geometry" />
        </mxCell>
        <mxCell id="m1fRsqhDPmbQ0bhZi6d0-65" value="" style="edgeStyle=orthogonalEdgeStyle;rounded=0;orthogonalLoop=1;jettySize=auto;html=1;" edge="1" parent="1" source="m1fRsqhDPmbQ0bhZi6d0-40" target="m1fRsqhDPmbQ0bhZi6d0-64">
          <mxGeometry relative="1" as="geometry">
            <Array as="points">
              <mxPoint x="604" y="639" />
              <mxPoint x="604" y="639" />
            </Array>
          </mxGeometry>
        </mxCell>
        <mxCell id="m1fRsqhDPmbQ0bhZi6d0-40" value="launch" style="image;aspect=fixed;html=1;points=[];align=center;fontSize=12;image=img/lib/azure2/general/Folder_Blank.svg;" vertex="1" parent="1">
          <mxGeometry x="524" y="622" width="40.66" height="33" as="geometry" />
        </mxCell>
        <mxCell id="m1fRsqhDPmbQ0bhZi6d0-44" value="package.xml" style="image;aspect=fixed;html=1;points=[];align=center;fontSize=12;image=img/lib/azure2/general/File.svg;" vertex="1" parent="1">
          <mxGeometry x="524" y="197" width="32.46" height="40" as="geometry" />
        </mxCell>
        <mxCell id="m1fRsqhDPmbQ0bhZi6d0-45" style="edgeStyle=orthogonalEdgeStyle;orthogonalLoop=1;jettySize=auto;html=1;curved=1;" edge="1" parent="1" source="m1fRsqhDPmbQ0bhZi6d0-28">
          <mxGeometry relative="1" as="geometry">
            <mxPoint x="430.5238095238094" y="322" as="sourcePoint" />
            <mxPoint x="524" y="221.9999999999999" as="targetPoint" />
            <Array as="points">
              <mxPoint x="431" y="222" />
            </Array>
          </mxGeometry>
        </mxCell>
        <mxCell id="m1fRsqhDPmbQ0bhZi6d0-46" value="CMakeList.txt" style="image;aspect=fixed;html=1;points=[];align=center;fontSize=12;image=img/lib/azure2/general/File.svg;" vertex="1" parent="1">
          <mxGeometry x="524" y="120" width="32.46" height="40" as="geometry" />
        </mxCell>
        <mxCell id="m1fRsqhDPmbQ0bhZi6d0-48" value="*.py" style="verticalLabelPosition=bottom;html=1;verticalAlign=top;align=center;strokeColor=none;fillColor=#00BEF2;shape=mxgraph.azure.script_file;pointerEvents=1;" vertex="1" parent="1">
          <mxGeometry x="614" y="212" width="30" height="37" as="geometry" />
        </mxCell>
        <mxCell id="m1fRsqhDPmbQ0bhZi6d0-49" value="*.sh" style="verticalLabelPosition=bottom;html=1;verticalAlign=top;align=center;strokeColor=none;fillColor=#00BEF2;shape=mxgraph.azure.script_file;pointerEvents=1;" vertex="1" parent="1">
          <mxGeometry x="614" y="278" width="30" height="37" as="geometry" />
        </mxCell>
        <mxCell id="m1fRsqhDPmbQ0bhZi6d0-50" style="edgeStyle=orthogonalEdgeStyle;orthogonalLoop=1;jettySize=auto;html=1;entryX=0;entryY=0.5;entryDx=0;entryDy=0;entryPerimeter=0;curved=1;" edge="1" parent="1" source="m1fRsqhDPmbQ0bhZi6d0-31" target="m1fRsqhDPmbQ0bhZi6d0-48">
          <mxGeometry relative="1" as="geometry" />
        </mxCell>
        <mxCell id="m1fRsqhDPmbQ0bhZi6d0-51" style="edgeStyle=orthogonalEdgeStyle;orthogonalLoop=1;jettySize=auto;html=1;entryX=0;entryY=0.5;entryDx=0;entryDy=0;entryPerimeter=0;curved=1;" edge="1" parent="1" source="m1fRsqhDPmbQ0bhZi6d0-31" target="m1fRsqhDPmbQ0bhZi6d0-49">
          <mxGeometry relative="1" as="geometry">
            <Array as="points">
              <mxPoint x="574" y="289" />
              <mxPoint x="574" y="297" />
            </Array>
          </mxGeometry>
        </mxCell>
        <mxCell id="m1fRsqhDPmbQ0bhZi6d0-52" value="*.cpp" style="verticalLabelPosition=bottom;html=1;verticalAlign=top;align=center;strokeColor=none;fillColor=#00BEF2;shape=mxgraph.azure.script_file;pointerEvents=1;" vertex="1" parent="1">
          <mxGeometry x="614" y="342" width="30" height="37" as="geometry" />
        </mxCell>
        <mxCell id="m1fRsqhDPmbQ0bhZi6d0-54" value="*.msg" style="image;aspect=fixed;html=1;points=[];align=center;fontSize=12;image=img/lib/azure2/general/File.svg;" vertex="1" parent="1">
          <mxGeometry x="614" y="405" width="32.47" height="40" as="geometry" />
        </mxCell>
        <mxCell id="m1fRsqhDPmbQ0bhZi6d0-55" value="*.srv" style="image;aspect=fixed;html=1;points=[];align=center;fontSize=12;image=img/lib/azure2/general/File.svg;" vertex="1" parent="1">
          <mxGeometry x="614" y="478.5" width="32.47" height="40" as="geometry" />
        </mxCell>
        <mxCell id="m1fRsqhDPmbQ0bhZi6d0-62" value="*.h" style="verticalLabelPosition=bottom;html=1;verticalAlign=top;align=center;strokeColor=none;fillColor=#00BEF2;shape=mxgraph.azure.script_file;pointerEvents=1;" vertex="1" parent="1">
          <mxGeometry x="615.23" y="552" width="30" height="37" as="geometry" />
        </mxCell>
        <mxCell id="m1fRsqhDPmbQ0bhZi6d0-64" value="*.launch" style="image;aspect=fixed;html=1;points=[];align=center;fontSize=12;image=img/lib/azure2/general/File.svg;" vertex="1" parent="1">
          <mxGeometry x="612.76" y="622" width="32.47" height="40" as="geometry" />
        </mxCell>
        <mxCell id="m1fRsqhDPmbQ0bhZi6d0-66" style="edgeStyle=orthogonalEdgeStyle;orthogonalLoop=1;jettySize=auto;html=1;entryX=0;entryY=0.55;entryDx=0;entryDy=0;entryPerimeter=0;curved=1;" edge="1" parent="1" source="m1fRsqhDPmbQ0bhZi6d0-28" target="m1fRsqhDPmbQ0bhZi6d0-46">
          <mxGeometry relative="1" as="geometry">
            <Array as="points">
              <mxPoint x="431" y="142" />
            </Array>
          </mxGeometry>
        </mxCell>
      </root>
    </mxGraphModel>
  </diagram>
</mxfile>
